<svg width="43" height="43" viewBox="0 0 43 43" fill="none" xmlns="http://www.w3.org/2000/svg">
<path d="M16.8712 1.39263C17.0036 0.436664 18.2794 0.204236 18.7404 1.05213L25.9381 14.2924C26.0898 14.5714 26.365 14.7618 26.6796 14.8053L41.6075 16.8716C42.5635 17.0039 42.7959 18.2797 41.948 18.7407L28.7078 25.9384C28.4287 26.0901 28.2384 26.3653 28.1948 26.6799L26.1286 41.6078C25.9963 42.5638 24.7204 42.7962 24.2595 41.9483L17.0617 28.7081C16.91 28.4291 16.6348 28.2387 16.3202 28.1951L1.39232 26.1289C0.436355 25.9966 0.203927 24.7207 1.05182 24.2598L14.2921 17.062C14.5711 16.9103 14.7615 16.6351 14.805 16.3206L16.8712 1.39263Z" fill="#2BB32A"/>
</svg>
