<svg width="607" height="468" viewBox="0 0 607 468" fill="none" xmlns="http://www.w3.org/2000/svg">
<path d="M598.098 170.179L526.933 436.328C522.364 453.441 504.75 463.611 487.62 459.038L31.2421 337.017C28.3957 336.254 25.7302 335.125 23.3107 333.698C11.1385 326.59 4.70196 311.999 8.51243 297.716L79.6774 31.5674C84.2465 14.4537 101.849 4.26452 118.99 8.85731L575.384 130.882C581.494 132.52 586.757 135.837 590.723 140.215C597.904 148.009 601.045 159.18 598.098 170.179Z" fill="url(#paint0_linear_9_509)"/>
<path opacity="0.53" d="M359.51 424.793L31.242 337.017C28.3956 336.254 25.7301 335.125 23.3105 333.698L207.967 226.955C213.483 223.758 219.544 222.364 225.448 222.669C236.046 223.088 246.237 228.803 251.937 238.72L359.51 424.793Z" fill="url(#paint1_linear_9_509)"/>
<path opacity="0.53" d="M198.473 157.194L18.2295 261.388L79.6732 31.5828C84.2463 14.4536 101.86 4.28402 118.974 8.85305L155.564 18.6408L210.238 113.225C219.152 128.596 213.886 148.308 198.473 157.194Z" fill="url(#paint2_linear_9_509)"/>
<path opacity="0.53" d="M356.736 72.4118L300.13 105.145C284.744 114.055 265.031 108.789 256.157 93.3959L223.427 36.7749L356.736 72.4118Z" fill="url(#paint3_linear_9_509)"/>
<path opacity="0.53" d="M598.098 170.179L534.54 407.875C526.115 405.965 518.457 400.697 513.795 392.6L375.524 153.401C366.614 138.015 371.884 118.287 387.282 109.397L421.381 89.6838L575.372 130.863C581.483 132.5 586.745 135.817 590.712 140.196C597.903 148.009 601.045 159.18 598.098 170.179Z" fill="url(#paint4_linear_9_509)"/>
<path d="M122.062 81.5889L127.655 60.7172L131.658 61.7897L126.065 82.6615L122.062 81.5889ZM109.596 78.2487L115.189 57.377L119.192 58.4495L113.599 79.3212L109.596 78.2487ZM114.034 69.6929L114.976 66.1762L127.442 69.5164L126.5 73.0331L114.034 69.6929ZM130.245 90.2168L134.336 84.7857L132.428 68.462L136.638 69.5596L137.291 81.5325L137.348 81.5479L143.929 71.5131L148.16 72.647L134.391 91.3276L130.245 90.2168ZM158.947 75.2308C160.91 75.7569 162.254 76.8421 162.978 78.4866C163.702 80.131 163.737 82.1731 163.083 84.6129C162.429 87.0527 161.378 88.8038 159.929 89.866C158.48 90.9282 156.774 91.1962 154.81 90.6702C153.857 90.4148 153.026 90.0083 152.318 89.4507C151.628 88.8982 151.087 88.2118 150.694 87.3914L150.637 87.3761L148.56 95.1244L144.615 94.0672L150.207 73.1954L153.953 74.199L153.514 75.9508L153.571 75.9661C154.365 75.4433 155.215 75.1297 156.122 75.0253C157.033 74.9018 157.975 74.9703 158.947 75.2308ZM156.932 78.0618C156.265 77.883 155.617 77.8625 154.987 78.0003C154.377 78.1432 153.853 78.4216 153.415 78.8355C152.983 79.2303 152.682 79.7422 152.514 80.3712L151.809 83.0016C151.64 83.6306 151.642 84.2338 151.814 84.8111C151.992 85.3693 152.309 85.8629 152.766 86.2918C153.242 86.7259 153.814 87.0323 154.481 87.211C155.624 87.5175 156.606 87.3617 157.425 86.7436C158.25 86.1065 158.859 85.0541 159.252 83.5864C159.645 82.1187 159.641 80.9124 159.241 79.9674C158.845 79.0034 158.076 78.3682 156.932 78.0618ZM171.504 95.1433C168.836 94.4283 166.956 93.2096 165.865 91.4871C164.793 89.7698 164.589 87.6722 165.253 85.1943C165.896 82.7926 167.059 81.0818 168.742 80.0618C170.425 79.0418 172.42 78.8408 174.726 79.4588C176.956 80.0564 178.498 81.1641 179.352 82.782C180.224 84.405 180.342 86.4079 179.703 88.7905C179.632 89.0573 179.54 89.3597 179.429 89.6977C179.337 90.0408 179.259 90.2956 179.194 90.462L167.071 87.2138L167.799 84.4976L176.862 86.9261L176.097 87.6097C176.495 86.123 176.515 84.9434 176.157 84.0709C175.817 83.2036 175.085 82.6193 173.96 82.318C172.778 82.0013 171.79 82.145 170.995 82.7491C170.205 83.3342 169.61 84.3701 169.212 85.8568L168.906 87.0005C168.548 88.3348 168.638 89.4109 169.174 90.2289C169.711 91.0469 170.704 91.6499 172.152 92.0381C172.972 92.2577 173.86 92.4138 174.816 92.5065C175.771 92.5992 176.638 92.6066 177.414 92.5287L177.067 95.6534C176.286 95.7503 175.398 95.7473 174.404 95.6445C173.424 95.5657 172.457 95.3987 171.504 95.1433Z" fill="white"/>
<path d="M105.677 136.056L104.977 138.67L101.29 137.517L102.656 141.083L99.9467 141.849L99.0053 137.999L96.2649 140.862L94.3484 138.857L97.2678 136.439L93.5404 135.623L94.2409 133.008L97.8688 134.196L96.5464 130.592L99.209 129.813L100.15 133.663L102.891 130.799L104.854 132.818L101.876 135.269L105.677 136.056Z" fill="white"/>
<path d="M124.848 141.176L124.148 143.791L120.461 142.637L121.827 146.203L119.118 146.969L118.176 143.119L115.436 145.983L113.52 143.977L116.439 141.559L112.712 140.743L113.412 138.129L117.04 139.316L115.718 135.712L118.38 134.933L119.322 138.783L122.062 135.92L124.025 137.938L121.047 140.39L124.848 141.176Z" fill="white"/>
<path d="M144.031 146.316L143.33 148.93L139.659 147.781L141.025 151.347L138.316 152.113L137.374 148.263L134.634 151.127L132.718 149.121L135.637 146.703L131.91 145.887L132.61 143.272L136.238 144.46L134.916 140.856L137.578 140.077L138.52 143.927L141.26 141.064L143.223 143.082L140.245 145.534L144.031 146.316Z" fill="white"/>
<path d="M163.202 151.437L162.502 154.051L158.815 152.897L160.181 156.463L157.472 157.23L156.53 153.379L153.79 156.243L151.873 154.237L154.793 151.82L151.065 151.003L151.766 148.389L155.394 149.576L154.071 145.972L156.734 145.194L157.675 149.044L160.416 146.18L162.379 148.198L159.4 150.65L163.202 151.437Z" fill="white"/>
<path d="M195.677 160.122L194.977 162.736L191.29 161.582L192.656 165.148L189.947 165.915L189.005 162.064L186.265 164.928L184.349 162.922L187.268 160.505L183.54 159.688L184.241 157.074L187.869 158.261L186.547 154.657L189.209 153.879L190.151 157.729L192.891 154.865L194.854 156.883L191.876 159.335L195.677 160.122Z" fill="white"/>
<path d="M214.864 165.246L214.163 167.86L210.477 166.707L211.842 170.273L209.133 171.039L208.192 167.189L205.452 170.052L203.535 168.047L206.455 165.629L202.727 164.812L203.428 162.198L207.056 163.386L205.733 159.782L208.396 159.003L209.337 162.853L212.078 159.989L214.041 162.008L211.062 164.459L214.864 165.246Z" fill="white"/>
<path d="M234.031 170.382L233.331 172.996L229.644 171.843L231.01 175.409L228.301 176.175L227.359 172.325L224.619 175.188L222.702 173.183L225.622 170.765L221.894 169.948L222.595 167.334L226.223 168.522L224.9 164.918L227.563 164.139L228.504 167.989L231.245 165.125L233.208 167.144L230.229 169.595L234.031 170.382Z" fill="white"/>
<path d="M253.218 175.507L252.517 178.121L248.846 176.971L250.212 180.537L247.503 181.304L246.561 177.454L243.821 180.317L241.904 178.312L244.824 175.894L241.096 175.077L241.797 172.463L245.425 173.651L244.102 170.047L246.765 169.268L247.706 173.118L250.447 170.254L252.41 172.272L249.431 174.724L253.218 175.507Z" fill="white"/>
<path d="M285.677 184.187L284.977 186.802L281.29 185.648L282.656 189.214L279.947 189.98L279.006 186.13L276.265 188.994L274.349 186.988L277.268 184.57L273.541 183.754L274.241 181.14L277.869 182.327L276.547 178.723L279.209 177.944L280.151 181.794L282.891 178.931L284.854 180.949L281.876 183.401L285.677 184.187Z" fill="white"/>
<path d="M304.864 189.312L304.164 191.926L300.477 190.773L301.843 194.339L299.134 195.105L298.192 191.255L295.452 194.118L293.535 192.113L296.455 189.695L292.727 188.878L293.428 186.264L297.056 187.452L295.733 183.848L298.396 183.069L299.337 186.919L302.078 184.055L304.041 186.073L301.062 188.525L304.864 189.312Z" fill="white"/>
<path d="M324.051 194.436L323.35 197.051L319.664 195.897L321.029 199.463L318.32 200.229L317.379 196.379L314.638 199.243L312.722 197.237L315.641 194.819L311.914 194.003L312.614 191.389L316.242 192.576L314.92 188.972L317.583 188.193L318.524 192.043L321.264 189.18L323.227 191.198L320.249 193.65L324.051 194.436Z" fill="white"/>
<path d="M343.218 199.572L342.517 202.187L338.846 201.037L340.212 204.603L337.503 205.37L336.561 201.519L333.821 204.383L331.905 202.377L334.824 199.959L331.096 199.143L331.797 196.529L335.425 197.716L334.103 194.112L336.765 193.333L337.707 197.184L340.447 194.32L342.41 196.338L339.432 198.79L343.218 199.572Z" fill="white"/>
<path d="M356.713 229.899L357.546 226.79L370.393 219.19C373.81 217.204 375.789 215.263 376.307 213.33C376.738 211.721 376.579 210.335 375.845 209.177C375.11 208.018 374.024 207.246 372.601 206.865C369.894 206.14 367.6 206.901 365.69 209.142L363.005 206.416C364.4 204.8 366.03 203.728 367.876 203.212C369.726 202.679 371.618 202.672 373.552 203.191C375.95 203.833 377.827 205.182 379.168 207.232C380.524 209.287 380.834 211.658 380.121 214.319C379.346 217.211 376.798 219.911 372.483 222.403L363.229 227.732L376.162 231.198L375.175 234.88L356.713 229.899Z" fill="white"/>
<path d="M396.886 222.541C398.959 223.528 400.501 224.952 401.499 226.795C402.498 228.638 402.692 230.696 402.087 232.955C401.341 235.739 399.793 237.679 397.459 238.778C395.125 239.877 392.59 240.06 389.867 239.33C387.686 238.746 385.885 237.732 384.464 236.29C383.043 234.849 382.222 233.087 382.016 231.009L385.708 229.975C385.85 232.848 387.571 234.719 390.866 235.602C392.629 236.074 394.208 236 395.57 235.37C396.933 234.74 397.838 233.59 398.282 231.935C398.725 230.28 398.521 228.815 397.655 227.589C396.794 226.347 395.465 225.493 393.701 225.02L392.726 224.759L391.836 222.017L400.857 214.834L388.141 211.427L389.095 207.869L406.27 212.455L405.359 215.792L396.886 222.541Z" fill="white"/>
<path d="M430.48 239.982L429.527 243.54L426.046 242.607L424.587 248.053L420.781 247.033L422.24 241.588L407.637 237.675L408.59 234.117L424.107 217.234L428.191 218.328L412.674 235.211L423.178 238.026L425.346 229.935L429.152 230.955L426.984 239.045L430.48 239.982Z" fill="white"/>
<path d="M447.691 235.524C450.398 236.25 452.461 237.648 453.906 239.743C455.351 241.838 455.69 244.283 454.936 247.099C454.19 249.883 452.642 251.823 450.308 252.922C447.974 254.021 445.438 254.204 442.716 253.474C440.534 252.89 438.726 251.841 437.291 250.329C435.856 248.817 435.055 246.978 434.909 244.8L438.636 243.825C438.649 245.321 439.095 246.568 439.998 247.589C440.902 248.611 442.137 249.323 443.715 249.746C445.509 250.227 447.103 250.156 448.466 249.527C449.828 248.897 450.733 247.747 451.177 246.091C451.62 244.436 451.416 242.972 450.535 241.741C449.674 240.499 448.36 239.649 446.612 239.181L438.521 237.013L443.521 222.436L459.227 226.628L458.274 230.186L446.053 226.911L443.518 234.389L447.691 235.524Z" fill="white"/>
<path d="M63.635 290.548L67.5326 276.002L77.7548 278.741L77.1034 281.172L69.6709 279.18L68.6404 283.026L75.6744 284.911L75.0391 287.282L68.0051 285.397L66.4246 291.295L63.635 290.548ZM80.4718 295.273C78.612 294.775 77.3019 293.925 76.5415 292.725C75.7943 291.528 75.6521 290.066 76.1148 288.339C76.5633 286.665 77.374 285.473 78.5469 284.762C79.7198 284.051 81.11 283.911 82.7174 284.342C84.2716 284.758 85.3462 285.53 85.941 286.658C86.5492 287.789 86.6308 289.185 86.1858 290.845C86.136 291.031 86.0724 291.242 85.9951 291.478C85.931 291.717 85.8763 291.894 85.831 292.01L77.3822 289.747L77.8894 287.854L84.2061 289.546L83.6726 290.022C83.9503 288.986 83.9641 288.164 83.7141 287.556C83.4774 286.952 82.9672 286.544 82.1834 286.334C81.3598 286.114 80.6709 286.214 80.1167 286.635C79.5661 287.043 79.1519 287.765 78.8743 288.801L78.6607 289.598C78.4116 290.528 78.474 291.278 78.8481 291.848C79.2221 292.418 79.9139 292.838 80.9235 293.109C81.4948 293.262 82.1134 293.371 82.7796 293.435C83.4457 293.5 84.0494 293.505 84.5908 293.451L84.349 295.628C83.8041 295.696 83.1853 295.694 82.4926 295.622C81.8096 295.567 81.136 295.451 80.4718 295.273ZM86.9468 296.794L90.8444 282.248L93.6341 282.996L89.7365 297.542L86.9468 296.794ZM95.9263 286.322L96.6044 283.791L99.3941 284.539L98.716 287.07L95.9263 286.322ZM92.7067 298.338L95.4458 288.115L98.2355 288.863L95.4964 299.085L92.7067 298.338ZM107.273 290.921C108.641 291.288 109.577 292.044 110.082 293.19C110.586 294.336 110.611 295.76 110.155 297.46C109.699 299.16 108.967 300.381 107.957 301.121C106.947 301.861 105.758 302.048 104.389 301.682C103.725 301.504 103.146 301.22 102.652 300.832C102.172 300.447 101.794 299.968 101.52 299.397L101.481 299.386L100.034 304.786L97.2838 304.049L101.181 289.503L103.792 290.202L103.486 291.423L103.526 291.434C104.079 291.069 104.672 290.851 105.303 290.778C105.939 290.692 106.595 290.74 107.273 290.921ZM105.868 292.894C105.403 292.77 104.952 292.756 104.513 292.852C104.088 292.951 103.722 293.145 103.417 293.434C103.116 293.709 102.906 294.066 102.789 294.504L102.297 296.337C102.18 296.776 102.181 297.196 102.301 297.598C102.425 297.987 102.646 298.331 102.964 298.63C103.296 298.933 103.695 299.146 104.16 299.271C104.957 299.484 105.641 299.376 106.212 298.945C106.786 298.501 107.211 297.768 107.485 296.745C107.759 295.722 107.756 294.881 107.477 294.222C107.202 293.551 106.665 293.108 105.868 292.894ZM116.024 304.799C114.164 304.301 112.854 303.451 112.094 302.251C111.347 301.054 111.204 299.592 111.667 297.865C112.116 296.191 112.926 294.999 114.099 294.288C115.272 293.577 116.662 293.437 118.27 293.868C119.824 294.284 120.898 295.056 121.493 296.184C122.101 297.315 122.183 298.711 121.738 300.372C121.688 300.558 121.625 300.768 121.547 301.004C121.483 301.243 121.429 301.421 121.383 301.537L112.934 299.273L113.442 297.38L119.758 299.072L119.225 299.549C119.502 298.512 119.516 297.69 119.266 297.082C119.03 296.478 118.519 296.071 117.736 295.861C116.912 295.64 116.223 295.74 115.669 296.161C115.118 296.569 114.704 297.291 114.427 298.327L114.213 299.124C113.964 300.054 114.026 300.804 114.4 301.374C114.774 301.944 115.466 302.364 116.476 302.635C117.047 302.788 117.666 302.897 118.332 302.961C118.998 303.026 119.602 303.031 120.143 302.977L119.901 305.155C119.356 305.222 118.737 305.22 118.045 305.148C117.362 305.093 116.688 304.977 116.024 304.799ZM127.968 307.786L131.865 293.24L134.715 294.003L131.474 306.098L139.046 308.127L138.389 310.578L127.968 307.786ZM143.777 299.144L144.455 296.613L147.245 297.36L146.567 299.891L143.777 299.144ZM140.557 311.159L143.296 300.937L146.086 301.684L143.347 311.907L140.557 311.159ZM146.256 312.686L149.032 302.324L151.583 303.008L151.297 304.234L151.337 304.245C151.846 303.883 152.379 303.648 152.935 303.541C153.504 303.437 154.127 303.476 154.804 303.657C155.468 303.835 156.001 304.106 156.402 304.47C156.803 304.834 157.041 305.275 157.115 305.793L157.155 305.804C157.699 305.423 158.26 305.188 158.838 305.101C159.417 305.014 160.052 305.063 160.742 305.249C161.845 305.544 162.564 306.05 162.899 306.766C163.247 307.486 163.252 308.477 162.914 309.739L161.061 316.653L158.391 315.938L160.062 309.701C160.254 308.983 160.282 308.428 160.145 308.036C160.008 307.643 159.687 307.379 159.182 307.244C158.585 307.084 158.058 307.163 157.602 307.483C157.15 307.789 156.835 308.274 156.657 308.938L155.023 315.035L152.333 314.315L154.042 307.938C154.213 307.3 154.214 306.788 154.047 306.402C153.897 306.006 153.583 305.744 153.105 305.615C152.746 305.519 152.394 305.532 152.048 305.653C151.706 305.76 151.405 305.957 151.143 306.243C150.881 306.529 150.693 306.884 150.579 307.309L148.946 313.407L146.256 312.686ZM165.992 318.188C164.969 317.914 164.236 317.411 163.791 316.68C163.359 315.952 163.272 315.11 163.528 314.153C163.849 312.958 164.561 312.159 165.665 311.757C166.783 311.359 168.205 311.391 169.932 311.854L171.307 312.223C171.431 311.758 171.468 311.383 171.416 311.099C171.377 310.818 171.231 310.593 170.977 310.426C170.74 310.248 170.369 310.092 169.864 309.956C169.2 309.779 168.489 309.666 167.733 309.62C166.98 309.561 166.251 309.572 165.545 309.654L165.773 307.451C166.531 307.383 167.346 307.395 168.219 307.487C169.108 307.569 169.971 307.721 170.808 307.946C171.871 308.231 172.674 308.581 173.218 308.997C173.761 309.413 174.092 309.958 174.211 310.63C174.333 311.289 174.261 312.117 173.994 313.113L172.243 319.649L169.632 318.95L169.913 317.744L169.893 317.738C169.407 318.064 168.805 318.265 168.086 318.343C167.368 318.421 166.67 318.37 165.992 318.188ZM167.544 316.383C168.009 316.507 168.449 316.54 168.863 316.48C169.278 316.42 169.629 316.279 169.916 316.057C170.22 315.826 170.419 315.537 170.511 315.192L170.826 314.016L169.85 313.754C168.774 313.466 167.933 313.39 167.327 313.527C166.724 313.65 166.346 313.997 166.193 314.569C166.079 314.994 166.137 315.365 166.365 315.682C166.606 316.003 166.999 316.237 167.544 316.383ZM184.962 323.271C183.979 323.008 183.042 322.65 182.153 322.198C181.266 321.733 180.559 321.237 180.031 320.711L181.325 318.431C181.716 318.778 182.159 319.117 182.654 319.449C183.153 319.768 183.673 320.057 184.216 320.316C184.762 320.562 185.288 320.753 185.793 320.888C186.669 321.123 187.381 321.15 187.928 320.969C188.475 320.788 188.827 320.405 188.983 319.821C189.069 319.502 189.067 319.217 188.978 318.965C188.892 318.7 188.724 318.449 188.475 318.211C188.229 317.96 187.9 317.701 187.487 317.434C187.075 317.167 186.584 316.871 186.016 316.548C185.365 316.16 184.795 315.765 184.304 315.364C183.814 314.962 183.416 314.535 183.11 314.082C182.817 313.634 182.625 313.155 182.534 312.647C182.459 312.128 182.502 311.57 182.662 310.972C183.011 309.67 183.776 308.808 184.957 308.384C186.142 307.947 187.645 307.972 189.465 308.46C190.368 308.702 191.241 309.028 192.085 309.44C192.946 309.841 193.662 310.275 194.235 310.742L192.921 313.016C192.365 312.54 191.723 312.119 190.995 311.753C190.271 311.374 189.53 311.083 188.773 310.88C187.87 310.638 187.148 310.594 186.609 310.749C186.073 310.89 185.733 311.226 185.591 311.757C185.506 312.076 185.499 312.366 185.571 312.628C185.647 312.876 185.797 313.115 186.02 313.346C186.256 313.58 186.56 313.825 186.933 314.082C187.319 314.342 187.781 314.636 188.319 314.966C189.019 315.381 189.626 315.8 190.14 316.222C190.67 316.635 191.088 317.067 191.394 317.519C191.717 317.962 191.924 318.437 192.015 318.946C192.107 319.455 192.071 320.014 191.907 320.626C191.551 321.954 190.762 322.853 189.54 323.323C188.334 323.783 186.808 323.766 184.962 323.271ZM195.434 326.077C194.411 325.803 193.678 325.3 193.233 324.569C192.801 323.841 192.714 322.999 192.97 322.042C193.29 320.847 194.003 320.048 195.107 319.646C196.225 319.248 197.647 319.28 199.374 319.743L200.749 320.112C200.873 319.647 200.91 319.272 200.858 318.987C200.819 318.707 200.673 318.482 200.419 318.315C200.182 318.137 199.811 317.981 199.306 317.845C198.642 317.667 197.931 317.555 197.175 317.509C196.422 317.45 195.693 317.461 194.987 317.543L195.215 315.34C195.973 315.272 196.788 315.284 197.661 315.376C198.55 315.457 199.413 315.61 200.25 315.835C201.313 316.119 202.116 316.47 202.66 316.886C203.203 317.302 203.534 317.847 203.653 318.519C203.775 319.178 203.703 320.006 203.436 321.002L201.685 327.538L199.074 326.839L199.355 325.633L199.335 325.627C198.849 325.953 198.247 326.154 197.528 326.232C196.81 326.31 196.112 326.259 195.434 326.077ZM196.986 324.272C197.451 324.396 197.891 324.429 198.305 324.369C198.72 324.309 199.071 324.168 199.358 323.946C199.662 323.715 199.861 323.426 199.953 323.081L200.268 321.905L199.292 321.643C198.216 321.355 197.375 321.279 196.769 321.416C196.166 321.539 195.788 321.886 195.635 322.457C195.521 322.883 195.579 323.254 195.807 323.571C196.048 323.892 196.441 324.126 196.986 324.272ZM204.167 328.203L206.943 317.842L209.553 318.541L209.248 319.762L209.287 319.773C209.841 319.408 210.426 319.188 211.045 319.112C211.68 319.025 212.37 319.082 213.114 319.281C214.362 319.616 215.188 320.2 215.591 321.034C216.011 321.859 216.027 322.995 215.639 324.443L213.93 330.819L211.201 330.088L212.765 324.25C212.996 323.386 213.017 322.723 212.828 322.259C212.643 321.782 212.231 321.458 211.594 321.288C211.116 321.159 210.664 321.145 210.238 321.245C209.817 321.331 209.455 321.512 209.153 321.787C208.869 322.052 208.668 322.404 208.55 322.843L206.916 328.94L204.167 328.203ZM220.784 332.869C219.535 332.535 218.699 332.04 218.277 331.386C217.867 330.735 217.817 329.832 218.127 328.676L219.515 323.495L217.264 322.892L217.835 320.76L220.087 321.363L220.994 317.976L223.744 318.713L222.836 322.1L226.204 323.003L225.633 325.135L222.265 324.232L221.058 328.736C220.891 329.36 220.873 329.825 221.005 330.131C221.14 330.423 221.467 330.639 221.985 330.778C222.264 330.853 222.563 330.904 222.883 330.933C223.216 330.965 223.528 330.971 223.818 330.949L223.456 333.18C222.968 333.191 222.512 333.169 222.086 333.111C221.656 333.068 221.222 332.987 220.784 332.869ZM230.103 335.366C228.403 334.911 227.212 334.093 226.531 332.914C225.864 331.739 225.761 330.288 226.224 328.561C226.687 326.834 227.501 325.628 228.667 324.944C229.846 324.263 231.286 324.151 232.986 324.606C234.686 325.062 235.87 325.877 236.538 327.053C237.205 328.228 237.308 329.68 236.845 331.407C236.382 333.134 235.568 334.339 234.402 335.023C233.236 335.708 231.803 335.822 230.103 335.366ZM230.674 333.234C231.524 333.462 232.235 333.361 232.806 332.93C233.39 332.503 233.827 331.751 234.115 330.675C234.403 329.599 234.401 328.73 234.109 328.068C233.83 327.409 233.265 326.966 232.415 326.738C231.578 326.514 230.861 326.614 230.263 327.037C229.679 327.465 229.242 328.216 228.954 329.292C228.666 330.368 228.668 331.237 228.96 331.899C229.266 332.565 229.837 333.01 230.674 333.234ZM241.093 338.311C240.628 338.187 240.139 338.02 239.625 337.811C239.121 337.619 238.645 337.406 238.195 337.172C237.749 336.924 237.366 336.679 237.046 336.437L237.946 334.435C238.523 334.832 239.088 335.168 239.64 335.445C240.206 335.724 240.781 335.942 241.365 336.099C242.03 336.277 242.538 336.321 242.889 336.23C243.241 336.139 243.465 335.914 243.561 335.556C243.618 335.343 243.611 335.156 243.541 334.995C243.47 334.833 243.31 334.662 243.059 334.481C242.825 334.29 242.477 334.076 242.014 333.838C241.221 333.398 240.556 332.956 240.02 332.514C239.5 332.061 239.138 331.58 238.933 331.069C238.728 330.559 238.708 329.998 238.871 329.387C239.135 328.404 239.706 327.759 240.585 327.454C241.464 327.148 242.615 327.186 244.036 327.567C244.687 327.741 245.344 327.974 246.006 328.266C246.681 328.561 247.298 328.89 247.856 329.253L246.956 331.254C246.425 330.898 245.9 330.601 245.38 330.362C244.86 330.123 244.341 329.934 243.823 329.795C243.159 329.617 242.646 329.565 242.285 329.639C241.927 329.7 241.705 329.89 241.62 330.209C241.57 330.395 241.58 330.568 241.651 330.73C241.722 330.891 241.876 331.06 242.113 331.238C242.35 331.415 242.693 331.621 243.143 331.855C243.728 332.169 244.247 332.493 244.698 332.827C245.15 333.162 245.517 333.517 245.801 333.892C246.089 334.254 246.277 334.639 246.367 335.047C246.47 335.459 246.46 335.898 246.335 336.363C246.164 337 245.835 337.51 245.349 337.892C244.865 338.261 244.258 338.483 243.526 338.557C242.807 338.635 241.996 338.553 241.093 338.311Z" fill="white"/>
<path d="M405.417 350.702L407.932 341.318L410.503 342.006C412.157 342.45 413.279 343.164 413.869 344.149C414.468 345.136 414.555 346.422 414.131 348.008C413.706 349.593 412.987 350.664 411.975 351.219C410.971 351.777 409.642 351.834 407.988 351.391L405.417 350.702ZM408.423 350.13C409.202 350.339 409.868 350.393 410.418 350.292C410.98 350.186 411.444 349.91 411.811 349.467C412.186 349.025 412.479 348.41 412.691 347.622C412.904 346.825 412.958 346.146 412.851 345.584C412.755 345.017 412.489 344.551 412.054 344.186C411.63 343.815 411.028 343.525 410.248 343.316L409.001 342.982L407.175 349.796L408.423 350.13ZM415.887 353.645C415.219 353.466 414.74 353.145 414.451 352.682C414.164 352.21 414.104 351.661 414.272 351.036C414.481 350.256 414.95 349.738 415.68 349.484C416.411 349.221 417.347 349.242 418.487 349.547L419.451 349.806C419.543 349.463 419.572 349.186 419.536 348.974C419.501 348.763 419.387 348.589 419.193 348.455C419.008 348.323 418.731 348.207 418.363 348.108C417.926 347.991 417.469 347.915 416.991 347.879C416.523 347.845 416.064 347.86 415.615 347.923L415.729 346.728C416.201 346.68 416.707 346.677 417.247 346.721C417.795 346.767 418.33 346.86 418.853 347C419.521 347.179 420.022 347.4 420.356 347.664C420.698 347.93 420.899 348.278 420.958 348.707C421.026 349.139 420.975 349.672 420.805 350.306L419.675 354.523L418.351 354.168L418.545 353.393L418.519 353.386C418.217 353.59 417.816 353.717 417.315 353.766C416.826 353.81 416.35 353.769 415.887 353.645ZM416.679 352.645C417.022 352.737 417.352 352.756 417.669 352.704C417.995 352.653 418.268 352.543 418.488 352.372C418.717 352.204 418.867 351.987 418.938 351.721L419.169 350.86L418.398 350.653C417.609 350.442 416.99 350.386 416.541 350.486C416.091 350.586 415.811 350.846 415.698 351.266C415.611 351.592 415.649 351.878 415.813 352.124C415.987 352.363 416.276 352.537 416.679 352.645ZM424.118 355.851C423.346 355.644 422.832 355.336 422.574 354.927C422.327 354.512 422.301 353.94 422.496 353.212L423.461 349.612L421.918 349.199L422.228 348.042L423.771 348.455L424.356 346.27L425.758 346.645L425.172 348.831L427.499 349.454L427.189 350.611L424.862 349.988L424.001 353.202C423.879 353.656 423.871 353.994 423.977 354.215C424.083 354.436 424.334 354.6 424.728 354.705C424.925 354.758 425.127 354.794 425.333 354.812C425.548 354.833 425.745 354.835 425.924 354.819L425.735 356.036C425.438 356.048 425.156 356.037 424.89 356.003C424.632 355.97 424.375 355.92 424.118 355.851ZM428.806 357.107C428.137 356.928 427.658 356.607 427.369 356.143C427.082 355.671 427.023 355.123 427.19 354.497C427.399 353.717 427.868 353.2 428.598 352.945C429.33 352.682 430.266 352.703 431.406 353.009L432.37 353.267C432.462 352.924 432.49 352.647 432.455 352.436C432.42 352.224 432.305 352.051 432.112 351.916C431.927 351.784 431.65 351.669 431.281 351.57C430.844 351.453 430.387 351.376 429.91 351.34C429.441 351.307 428.983 351.321 428.534 351.385L428.648 350.189C429.12 350.141 429.626 350.139 430.165 350.182C430.713 350.228 431.249 350.321 431.771 350.461C432.44 350.64 432.941 350.862 433.274 351.126C433.616 351.392 433.817 351.74 433.877 352.169C433.945 352.6 433.894 353.133 433.724 353.768L432.594 357.984L431.27 357.629L431.464 356.855L431.438 356.848C431.135 357.051 430.734 357.178 430.234 357.228C429.745 357.271 429.268 357.231 428.806 357.107ZM429.597 356.107C429.94 356.198 430.27 356.218 430.587 356.165C430.913 356.115 431.186 356.004 431.407 355.834C431.635 355.665 431.785 355.448 431.857 355.183L432.087 354.321L431.316 354.115C430.528 353.903 429.909 353.848 429.459 353.948C429.01 354.048 428.729 354.308 428.616 354.728C428.529 355.053 428.567 355.339 428.731 355.585C428.906 355.825 429.195 355.999 429.597 356.107ZM440.312 360.19C439.42 359.951 438.803 359.46 438.461 358.716C438.12 357.963 438.096 357.043 438.388 355.954C438.679 354.866 439.16 354.085 439.828 353.612C440.499 353.13 441.28 353.009 442.172 353.248C442.626 353.37 443.016 353.561 443.34 353.823C443.676 354.078 443.924 354.388 444.084 354.752L444.109 354.759L445.046 351.262L446.435 351.634L443.92 361.019L442.596 360.664L442.797 359.864L442.771 359.857C442.453 360.084 442.075 360.226 441.637 360.283C441.208 360.343 440.766 360.312 440.312 360.19ZM440.93 359.116C441.299 359.214 441.64 359.228 441.953 359.155C442.275 359.086 442.552 358.944 442.783 358.73C443.015 358.517 443.173 358.252 443.258 357.934L443.596 356.675C443.683 356.349 443.679 356.04 443.582 355.748C443.489 355.447 443.32 355.186 443.076 354.965C442.841 354.745 442.543 354.587 442.183 354.491C441.609 354.337 441.109 354.419 440.684 354.737C440.261 355.046 439.95 355.574 439.75 356.319C439.553 357.056 439.559 357.669 439.768 358.157C439.977 358.644 440.365 358.964 440.93 359.116ZM448.992 362.516C447.835 362.206 447.024 361.667 446.559 360.899C446.094 360.132 446.011 359.191 446.31 358.077C446.599 356.997 447.113 356.225 447.853 355.762C448.601 355.301 449.481 355.206 450.492 355.477C451.469 355.739 452.141 356.231 452.508 356.954C452.883 357.68 452.927 358.578 452.64 359.649C452.61 359.76 452.572 359.884 452.527 360.018C452.49 360.156 452.457 360.262 452.428 360.336L446.926 358.862L447.219 357.769L451.667 358.961L451.359 359.237C451.554 358.508 451.553 357.929 451.356 357.5C451.161 357.062 450.772 356.765 450.189 356.609C449.572 356.443 449.05 356.506 448.623 356.795C448.205 357.088 447.9 357.594 447.707 358.313L447.603 358.699C447.417 359.393 447.458 359.96 447.727 360.399C448.005 360.832 448.513 361.148 449.251 361.345C449.611 361.442 450.001 361.509 450.422 361.549C450.854 361.582 451.245 361.581 451.594 361.546L451.475 362.713C451.112 362.762 450.711 362.77 450.27 362.734C449.838 362.701 449.412 362.628 448.992 362.516ZM459.877 365.432C458.72 365.122 457.909 364.584 457.444 363.816C456.979 363.048 456.896 362.108 457.194 360.993C457.484 359.914 457.998 359.142 458.738 358.679C459.486 358.218 460.365 358.123 461.377 358.394C462.354 358.656 463.026 359.148 463.392 359.871C463.768 360.596 463.812 361.494 463.525 362.566C463.495 362.677 463.457 362.8 463.412 362.935C463.375 363.072 463.342 363.178 463.313 363.253L457.811 361.779L458.103 360.686L462.551 361.878L462.243 362.153C462.439 361.425 462.438 360.846 462.24 360.416C462.045 359.978 461.656 359.681 461.074 359.525C460.457 359.36 459.935 359.422 459.508 359.712C459.09 360.004 458.784 360.51 458.591 361.23L458.488 361.616C458.302 362.31 458.343 362.877 458.611 363.316C458.89 363.749 459.398 364.064 460.135 364.262C460.495 364.358 460.886 364.426 461.307 364.465C461.739 364.498 462.13 364.498 462.479 364.462L462.359 365.629C461.997 365.679 461.595 365.686 461.155 365.651C460.723 365.618 460.297 365.545 459.877 365.432ZM463.239 366.196L466.34 363.416L465.056 359.518L466.65 359.945L467.478 362.922L467.504 362.929L469.71 360.765L471.304 361.192L468.243 363.926L469.538 367.884L467.944 367.456L467.104 364.42L467.079 364.414L464.833 366.623L463.239 366.196ZM476.336 362.402C477.227 362.641 477.843 363.137 478.183 363.889C478.526 364.633 478.551 365.549 478.259 366.638C477.968 367.726 477.486 368.511 476.815 368.993C476.147 369.466 475.367 369.583 474.475 369.344C474.03 369.225 473.64 369.033 473.307 368.769C472.973 368.505 472.726 368.196 472.564 367.84L472.538 367.833L471.601 371.33L470.213 370.958L472.727 361.573L474.051 361.928L473.851 362.728L473.876 362.735C474.205 362.502 474.583 362.36 475.01 362.309C475.44 362.249 475.881 362.28 476.336 362.402ZM475.704 363.473C475.353 363.379 475.016 363.367 474.694 363.437C474.372 363.507 474.096 363.648 473.864 363.862C473.634 364.067 473.476 364.332 473.389 364.658L473.051 365.917C472.966 366.235 472.971 366.543 473.065 366.844C473.159 367.145 473.327 367.406 473.571 367.628C473.815 367.849 474.113 368.007 474.464 368.101C475.047 368.257 475.546 368.175 475.963 367.855C476.388 367.537 476.699 367.01 476.897 366.273C477.094 365.536 477.088 364.923 476.879 364.435C476.679 363.95 476.287 363.629 475.704 363.473ZM481.096 362.438L481.475 361.024L482.889 361.402L482.51 362.817L481.096 362.438ZM478.961 370.408L480.752 363.723L482.166 364.102L480.375 370.787L478.961 370.408ZM482.461 371.346L484.252 364.661L485.589 365.019L485.258 366.308L485.283 366.315C485.578 366.073 485.903 365.889 486.258 365.763C486.624 365.632 487.01 365.561 487.417 365.551C487.833 365.542 488.246 365.594 488.658 365.704L488.33 366.925C487.782 366.778 487.252 366.751 486.74 366.843C486.237 366.938 485.804 367.13 485.442 367.419C485.08 367.708 484.84 368.071 484.723 368.508L483.862 371.722L482.461 371.346ZM489.469 373.362C488.8 373.182 488.321 372.861 488.032 372.398C487.745 371.926 487.685 371.377 487.853 370.752C488.062 369.972 488.531 369.454 489.261 369.2C489.993 368.937 490.929 368.958 492.069 369.263L493.033 369.522C493.125 369.179 493.153 368.902 493.118 368.69C493.083 368.479 492.968 368.306 492.775 368.171C492.59 368.039 492.313 367.923 491.944 367.825C491.507 367.707 491.05 367.631 490.573 367.595C490.104 367.561 489.646 367.576 489.197 367.639L489.311 366.444C489.783 366.396 490.289 366.393 490.828 366.437C491.376 366.483 491.912 366.576 492.434 366.716C493.103 366.895 493.604 367.116 493.937 367.38C494.279 367.646 494.48 367.994 494.54 368.423C494.608 368.855 494.557 369.388 494.387 370.022L493.257 374.239L491.933 373.884L492.127 373.109L492.101 373.102C491.798 373.306 491.397 373.433 490.897 373.482C490.407 373.526 489.931 373.486 489.469 373.362ZM490.26 372.361C490.603 372.453 490.933 372.473 491.25 372.42C491.576 372.369 491.849 372.259 492.07 372.088C492.298 371.92 492.448 371.703 492.52 371.437L492.75 370.576L491.979 370.369C491.19 370.158 490.572 370.102 490.122 370.202C489.673 370.302 489.392 370.562 489.279 370.982C489.192 371.308 489.23 371.594 489.394 371.84C489.569 372.079 489.857 372.253 490.26 372.361ZM498.13 375.682C497.376 375.48 496.765 375.17 496.299 374.751C495.832 374.332 495.522 373.826 495.369 373.234C495.226 372.635 495.252 371.972 495.448 371.243C495.643 370.515 495.951 369.931 496.371 369.493C496.803 369.048 497.325 368.761 497.939 368.632C498.552 368.502 499.236 368.538 499.99 368.74C500.367 368.841 500.712 368.975 501.026 369.142C501.342 369.3 501.635 369.507 501.907 369.764L501.363 370.817C501.113 370.584 500.855 370.396 500.591 370.252C500.326 370.107 500.053 369.997 499.77 369.921C499.042 369.726 498.422 369.776 497.911 370.071C497.409 370.368 497.059 370.885 496.862 371.622C496.666 372.351 496.711 372.974 496.995 373.491C497.29 374.001 497.801 374.354 498.53 374.549C498.813 374.625 499.105 374.667 499.406 374.674C499.707 374.681 500.024 374.647 500.357 374.571L500.301 375.754C499.941 375.832 499.583 375.865 499.228 375.853C498.873 375.84 498.507 375.783 498.13 375.682ZM496.723 378.157C496.174 378.011 495.705 377.788 495.317 377.491L495.828 376.457C495.985 376.591 496.153 376.701 496.333 376.785C496.518 376.881 496.71 376.955 496.907 377.008C497.095 377.059 497.259 377.08 497.4 377.071C497.537 377.071 497.65 377.046 497.737 376.996C497.823 376.946 497.881 376.869 497.908 376.767C497.954 376.595 497.912 376.377 497.78 376.112C497.647 375.856 497.432 375.578 497.136 375.278L498.478 375.307C498.784 375.674 498.993 376.028 499.103 376.37C499.22 376.723 499.237 377.054 499.154 377.362C499.078 377.645 498.933 377.863 498.717 378.017C498.499 378.179 498.222 378.27 497.886 378.29C497.548 378.319 497.16 378.275 496.723 378.157ZM503.467 377.112C502.798 376.933 502.319 376.612 502.03 376.149C501.743 375.677 501.684 375.128 501.851 374.502C502.06 373.723 502.53 373.205 503.259 372.951C503.991 372.687 504.927 372.709 506.067 373.014L507.031 373.272C507.123 372.93 507.151 372.652 507.116 372.441C507.081 372.229 506.966 372.056 506.773 371.922C506.588 371.79 506.311 371.674 505.942 371.575C505.505 371.458 505.048 371.382 504.571 371.346C504.102 371.312 503.644 371.327 503.195 371.39L503.309 370.194C503.781 370.146 504.287 370.144 504.826 370.188C505.374 370.233 505.91 370.326 506.432 370.467C507.101 370.646 507.602 370.867 507.935 371.131C508.277 371.397 508.478 371.745 508.538 372.174C508.606 372.606 508.555 373.139 508.385 373.773L507.255 377.99L505.931 377.635L506.125 376.86L506.099 376.853C505.796 377.057 505.395 377.184 504.895 377.233C504.406 377.277 503.93 377.236 503.467 377.112ZM504.258 376.112C504.601 376.204 504.931 376.223 505.249 376.171C505.574 376.12 505.847 376.01 506.068 375.839C506.296 375.671 506.447 375.454 506.518 375.188L506.748 374.327L505.977 374.12C505.189 373.909 504.57 373.853 504.12 373.953C503.671 374.053 503.39 374.313 503.278 374.733C503.19 375.059 503.229 375.345 503.392 375.591C503.567 375.83 503.856 376.004 504.258 376.112ZM507.874 370.178C507.66 370.12 507.442 370.007 507.221 369.837C507 369.668 506.744 369.425 506.452 369.108C506.253 368.889 506.064 368.705 505.883 368.556C505.712 368.409 505.579 368.322 505.484 368.297C505.364 368.265 505.251 368.327 505.145 368.482C505.042 368.629 504.943 368.878 504.849 369.229L503.563 368.885C503.972 367.359 504.613 366.714 505.488 366.948C505.702 367.005 505.92 367.119 506.14 367.288C506.37 367.46 506.626 367.703 506.909 368.018C507.117 368.239 507.306 368.423 507.478 368.57C507.65 368.717 507.783 368.803 507.877 368.828C507.997 368.86 508.11 368.799 508.216 368.643C508.322 368.488 508.421 368.239 508.513 367.896L509.798 368.241C509.39 369.766 508.748 370.412 507.874 370.178ZM511.858 379.361C510.795 379.076 510.053 378.556 509.631 377.8C509.211 377.035 509.149 376.1 509.446 374.994C509.742 373.889 510.262 373.114 511.005 372.67C511.751 372.218 512.656 372.134 513.718 372.419C514.781 372.704 515.522 373.228 515.942 373.993C516.364 374.749 516.427 375.68 516.131 376.785C515.834 377.891 515.313 378.67 514.568 379.122C513.824 379.566 512.921 379.646 511.858 379.361ZM512.168 378.204C512.802 378.374 513.339 378.306 513.779 378.002C514.219 377.697 514.54 377.168 514.742 376.413C514.944 375.659 514.931 375.04 514.702 374.556C514.474 374.073 514.042 373.746 513.408 373.576C512.783 373.408 512.246 373.475 511.797 373.778C511.357 374.083 511.036 374.612 510.834 375.366C510.632 376.12 510.645 376.739 510.874 377.223C511.111 377.709 511.543 378.036 512.168 378.204Z" fill="white"/>
<path d="M70.4169 259.702L72.9315 250.317L74.4742 250.731L77.0534 259L77.0791 259.007L78.9737 251.936L80.3878 252.315L77.8732 261.7L76.3305 261.287L73.7513 253.017L73.7256 253.01L71.831 260.081L70.4169 259.702ZM82.7754 263.151C81.7126 262.866 80.9702 262.346 80.5482 261.59C80.1284 260.825 80.0667 259.89 80.3629 258.785C80.6592 257.679 81.1791 256.904 81.9226 256.46C82.6685 256.008 83.5727 255.924 84.6355 256.209C85.6982 256.494 86.4395 257.019 86.8592 257.783C87.2812 258.539 87.3441 259.47 87.0479 260.576C86.7517 261.681 86.2306 262.46 85.4848 262.913C84.7412 263.356 83.8381 263.436 82.7754 263.151ZM83.0854 261.994C83.7196 262.164 84.2566 262.097 84.6965 261.792C85.1364 261.487 85.4574 260.958 85.6595 260.204C85.8616 259.45 85.8483 258.831 85.6197 258.347C85.3911 257.863 84.9597 257.536 84.3255 257.366C83.6998 257.198 83.1628 257.266 82.7143 257.568C82.2744 257.873 81.9534 258.402 81.7513 259.157C81.5493 259.911 81.5625 260.53 81.7911 261.014C82.0283 261.5 82.4597 261.827 83.0854 261.994ZM87.6391 264.317L89.4304 257.632L90.7288 257.98L90.5281 258.78L90.5538 258.787C90.8718 258.56 91.2241 258.411 91.6105 258.34C91.997 258.269 92.4173 258.294 92.8716 258.416C93.3172 258.535 93.6725 258.718 93.9374 258.963C94.2046 259.2 94.3623 259.486 94.4105 259.82L94.4362 259.827C94.7697 259.577 95.1231 259.423 95.4964 259.367C95.8806 259.305 96.2998 259.335 96.754 259.456C97.4825 259.651 97.9622 259.987 98.1931 260.462C98.4263 260.929 98.4327 261.573 98.2122 262.396L97.0238 266.831L95.6611 266.466L96.7634 262.352C96.9058 261.821 96.9203 261.407 96.8069 261.11C96.6935 260.813 96.4397 260.612 96.0455 260.506C95.5826 260.382 95.1728 260.438 94.8159 260.673C94.4612 260.9 94.2162 261.266 94.0807 261.771L93.0128 265.757L91.6501 265.391L92.7869 261.149C92.9086 260.695 92.903 260.321 92.7702 260.028C92.6397 259.727 92.3944 259.528 92.0345 259.432C91.7516 259.356 91.475 259.36 91.2046 259.444C90.9341 259.527 90.6959 259.679 90.4899 259.9C90.2947 260.114 90.1547 260.379 90.0697 260.697L89.0018 264.682L87.6391 264.317ZM101.902 268.276C100.745 267.966 99.9341 267.427 99.4692 266.66C99.0043 265.892 98.9211 264.951 99.2197 263.837C99.509 262.757 100.023 261.986 100.763 261.523C101.511 261.062 102.391 260.967 103.402 261.238C104.379 261.499 105.051 261.992 105.418 262.715C105.793 263.44 105.837 264.338 105.55 265.409C105.52 265.521 105.483 265.644 105.437 265.779C105.4 265.916 105.367 266.022 105.338 266.097L99.836 264.622L100.129 263.53L104.577 264.721L104.269 264.997C104.464 264.269 104.463 263.69 104.266 263.26C104.071 262.822 103.682 262.525 103.099 262.369C102.482 262.204 101.96 262.266 101.533 262.556C101.115 262.848 100.81 263.354 100.617 264.074L100.513 264.459C100.327 265.154 100.368 265.72 100.637 266.16C100.916 266.593 101.424 266.908 102.161 267.105C102.521 267.202 102.911 267.27 103.332 267.309C103.764 267.342 104.155 267.341 104.504 267.306L104.385 268.473C104.022 268.523 103.621 268.53 103.18 268.495C102.748 268.462 102.322 268.389 101.902 268.276ZM112.028 270.989C111.137 270.751 110.52 270.259 110.177 269.515C109.837 268.763 109.813 267.842 110.104 266.754C110.396 265.665 110.876 264.885 111.545 264.412C112.216 263.93 112.997 263.809 113.888 264.047C114.343 264.169 114.732 264.361 115.057 264.622C115.393 264.878 115.641 265.187 115.8 265.552L115.826 265.559L116.763 262.062L118.151 262.434L115.637 271.819L114.312 271.464L114.513 270.663L114.487 270.656C114.169 270.883 113.791 271.026 113.354 271.083C112.924 271.142 112.482 271.111 112.028 270.989ZM112.647 269.915C113.015 270.014 113.356 270.027 113.67 269.955C113.991 269.885 114.268 269.743 114.5 269.53C114.732 269.316 114.89 269.051 114.975 268.734L115.313 267.474C115.4 267.148 115.395 266.839 115.299 266.547C115.205 266.247 115.036 265.985 114.792 265.764C114.557 265.545 114.26 265.387 113.9 265.291C113.326 265.137 112.826 265.219 112.401 265.536C111.978 265.846 111.667 266.373 111.467 267.119C111.27 267.856 111.275 268.468 111.485 268.956C111.694 269.444 112.081 269.764 112.647 269.915ZM120.439 273.243C119.376 272.958 118.633 272.438 118.211 271.682C117.792 270.917 117.73 269.982 118.026 268.876C118.322 267.771 118.842 266.996 119.586 266.552C120.332 266.1 121.236 266.016 122.299 266.301C123.361 266.586 124.103 267.11 124.522 267.875C124.944 268.631 125.007 269.562 124.711 270.668C124.415 271.773 123.894 272.552 123.148 273.004C122.404 273.448 121.501 273.528 120.439 273.243ZM120.749 272.086C121.383 272.256 121.92 272.189 122.36 271.884C122.8 271.579 123.121 271.05 123.323 270.296C123.525 269.541 123.512 268.922 123.283 268.439C123.054 267.955 122.623 267.628 121.989 267.458C121.363 267.29 120.826 267.358 120.378 267.66C119.938 267.965 119.617 268.494 119.415 269.248C119.212 270.003 119.226 270.622 119.454 271.105C119.692 271.591 120.123 271.918 120.749 272.086ZM131.489 276.066L133.66 267.967L130.471 267.113L130.816 265.827L138.658 267.929L138.313 269.214L135.125 268.36L132.955 276.459L131.489 276.066ZM139.756 269.739L140.135 268.324L141.549 268.703L141.17 270.118L139.756 269.739ZM137.621 277.709L139.412 271.024L140.826 271.403L139.035 278.088L137.621 277.709ZM144.043 279.568C143.272 279.361 142.757 279.053 142.499 278.644C142.253 278.229 142.227 277.657 142.422 276.929L143.386 273.329L141.844 272.916L142.154 271.759L143.696 272.172L144.282 269.987L145.683 270.362L145.098 272.548L147.425 273.171L147.114 274.328L144.788 273.705L143.926 276.919C143.805 277.373 143.797 277.711 143.903 277.932C144.009 278.153 144.259 278.317 144.653 278.422C144.85 278.475 145.052 278.511 145.259 278.529C145.473 278.55 145.67 278.552 145.849 278.536L145.661 279.753C145.364 279.765 145.082 279.754 144.816 279.72C144.558 279.687 144.3 279.637 144.043 279.568ZM149.372 280.996C148.567 280.78 148.034 280.403 147.774 279.865C147.514 279.327 147.508 278.595 147.756 277.669L148.858 273.555L150.247 273.927L149.213 277.784C149.048 278.401 149.029 278.883 149.157 279.229C149.293 279.578 149.597 279.816 150.068 279.942C150.42 280.036 150.748 280.046 151.052 279.972C151.366 279.899 151.633 279.76 151.854 279.552C152.077 279.337 152.231 279.07 152.316 278.753L153.384 274.768L154.772 275.14L152.981 281.825L151.657 281.47L151.857 280.67L151.832 280.663C151.483 280.9 151.109 281.048 150.707 281.105C150.306 281.163 149.861 281.127 149.372 280.996ZM155.059 282.382L157.573 272.997L158.987 273.376L156.473 282.761L155.059 282.382ZM160.093 283.868C159.424 283.689 158.946 283.368 158.656 282.905C158.369 282.433 158.31 281.884 158.477 281.258C158.686 280.479 159.156 279.961 159.885 279.707C160.617 279.443 161.553 279.465 162.693 279.77L163.657 280.028C163.749 279.686 163.777 279.408 163.742 279.197C163.707 278.985 163.593 278.812 163.399 278.678C163.214 278.546 162.937 278.43 162.569 278.331C162.132 278.214 161.674 278.138 161.197 278.102C160.729 278.068 160.27 278.083 159.821 278.146L159.935 276.95C160.407 276.902 160.913 276.9 161.452 276.944C162 276.989 162.536 277.082 163.059 277.223C163.727 277.402 164.228 277.623 164.562 277.887C164.904 278.153 165.104 278.501 165.164 278.93C165.232 279.362 165.181 279.895 165.011 280.529L163.881 284.746L162.557 284.391L162.751 283.616L162.725 283.609C162.423 283.813 162.021 283.94 161.521 283.989C161.032 284.033 160.556 283.992 160.093 283.868ZM160.885 282.868C161.227 282.96 161.557 282.979 161.875 282.927C162.201 282.876 162.474 282.766 162.694 282.595C162.923 282.427 163.073 282.21 163.144 281.944L163.375 281.083L162.603 280.876C161.815 280.665 161.196 280.609 160.747 280.709C160.297 280.809 160.016 281.069 159.904 281.489C159.816 281.815 159.855 282.101 160.018 282.347C160.193 282.586 160.482 282.76 160.885 282.868ZM165.665 285.224L167.456 278.539L168.793 278.897L168.461 280.186L168.487 280.193C168.782 279.95 169.107 279.766 169.462 279.641C169.828 279.509 170.214 279.438 170.621 279.428C171.037 279.42 171.45 279.471 171.861 279.581L171.534 280.803C170.986 280.656 170.456 280.628 169.944 280.721C169.441 280.816 169.008 281.008 168.646 281.296C168.284 281.585 168.044 281.948 167.927 282.385L167.066 285.599L165.665 285.224Z" fill="white"/>
<path d="M416.964 387.508C415.393 388.794 413.584 389.172 411.526 388.62C409.469 388.069 408.071 386.849 407.353 384.949C406.636 383.049 406.631 380.776 407.344 378.115C408.057 375.455 409.197 373.489 410.769 372.202C412.341 370.915 414.145 370.553 416.207 371.089C418.265 371.64 419.662 372.86 420.364 374.756C421.082 376.657 421.087 378.929 420.374 381.59C419.676 384.255 418.536 386.221 416.964 387.508ZM409.404 383.857C409.839 385.201 410.738 386.055 412.099 386.42C413.461 386.784 414.681 386.498 415.731 385.552C416.78 384.606 417.582 383.097 418.142 381.009C418.702 378.92 418.765 377.196 418.314 375.849C417.878 374.505 416.964 373.646 415.603 373.282C414.242 372.917 413.036 373.207 411.987 374.153C410.938 375.099 410.131 376.624 409.568 378.728C409.028 380.805 408.968 382.513 409.404 383.857Z" fill="white"/>
<path d="M419.766 390.48L420.259 388.639L427.844 384.155C429.864 382.989 431.018 381.839 431.325 380.694C431.578 379.751 431.483 378.929 431.051 378.25C430.62 377.571 429.979 377.117 429.143 376.893C427.55 376.466 426.186 376.913 425.069 378.239L423.48 376.619C424.3 375.662 425.262 375.041 426.359 374.721C427.452 374.417 428.567 374.401 429.712 374.708C431.12 375.085 432.233 375.881 433.036 377.091C433.84 378.301 434.014 379.69 433.607 381.273C433.151 382.974 431.644 384.577 429.094 386.049L423.641 389.197L431.283 391.245L430.703 393.411L419.766 390.48Z" fill="white"/>
<path d="M433.143 396.618L431.882 396.313L447.331 377.207L448.592 377.512L433.143 396.618Z" fill="white"/>
<path d="M454.632 389.128C455.85 389.72 456.772 390.547 457.356 391.649C457.943 392.735 458.067 393.945 457.706 395.291C457.267 396.93 456.362 398.081 454.979 398.722C453.597 399.363 452.107 399.478 450.499 399.047C449.215 398.703 448.149 398.102 447.316 397.249C446.484 396.396 446 395.354 445.877 394.144L448.062 393.536C448.139 395.231 449.154 396.332 451.103 396.854C452.155 397.136 453.08 397.085 453.875 396.718C454.67 396.351 455.217 395.668 455.478 394.694C455.74 393.719 455.622 392.859 455.106 392.124C454.59 391.388 453.814 390.882 452.777 390.604L452.205 390.451L451.677 388.834L457.008 384.592L449.505 382.581L450.069 380.477L460.202 383.192L459.66 385.153L454.632 389.128Z" fill="white"/>
<path d="M470.22 401.744C468.648 403.031 466.839 403.408 464.781 402.857C462.724 402.306 461.326 401.085 460.624 399.189C459.906 397.289 459.902 395.017 460.615 392.356C461.328 389.695 462.468 387.729 464.024 386.438C465.58 385.147 467.401 384.79 469.462 385.325C471.52 385.877 472.917 387.097 473.635 388.997C474.353 390.897 474.357 393.17 473.644 395.831C472.931 398.491 471.791 400.457 470.22 401.744ZM462.674 398.097C463.11 399.441 464.009 400.295 465.37 400.66C466.731 401.025 467.952 400.739 469.001 399.793C470.051 398.847 470.853 397.338 471.417 395.234C471.981 393.13 472.04 391.421 471.589 390.074C471.153 388.73 470.243 387.856 468.878 387.507C467.517 387.142 466.296 387.428 465.262 388.378C464.213 389.324 463.406 390.849 462.842 392.953C462.298 395.045 462.238 396.754 462.674 398.097Z" fill="white"/>
<path d="M510.068 200.967C521.217 203.954 532.678 197.338 535.665 186.188C538.653 175.039 532.036 163.578 520.886 160.591C509.737 157.603 498.277 164.22 495.289 175.369C492.302 186.519 498.918 197.979 510.068 200.967Z" fill="white"/>
<path d="M537.005 208.168C525.866 205.184 519.241 193.709 522.206 182.582C525.171 171.455 536.665 164.819 547.792 167.784C558.931 170.768 565.556 182.243 562.591 193.37C559.626 204.497 548.147 211.137 537.005 208.168ZM546.005 174.517C538.579 172.527 530.925 176.96 528.94 184.37C526.954 191.78 531.382 199.449 538.792 201.435C546.218 203.424 553.872 198.992 555.857 191.582C557.851 184.141 553.434 176.491 546.005 174.517Z" fill="white"/>
<defs>
<linearGradient id="paint0_linear_9_509" x1="46.591" y1="382.352" x2="560.022" y2="85.5478" gradientUnits="userSpaceOnUse">
<stop stop-color="#00252E"/>
<stop offset="1" stop-color="#83F8A6"/>
</linearGradient>
<linearGradient id="paint1_linear_9_509" x1="43.8615" y1="256.852" x2="380.357" y2="346.818" gradientUnits="userSpaceOnUse">
<stop stop-color="#02CAFD"/>
<stop offset="1" stop-color="#83F8A6"/>
</linearGradient>
<linearGradient id="paint2_linear_9_509" x1="-26.2132" y1="184.507" x2="181.904" y2="64.1988" gradientUnits="userSpaceOnUse">
<stop stop-color="#02CAFD"/>
<stop offset="1" stop-color="#83F8A6"/>
</linearGradient>
<linearGradient id="paint3_linear_9_509" x1="247.839" y1="79.0133" x2="332.32" y2="30.1767" gradientUnits="userSpaceOnUse">
<stop stop-color="#02CAFD"/>
<stop offset="1" stop-color="#83F8A6"/>
</linearGradient>
<linearGradient id="paint4_linear_9_509" x1="810.935" y1="531.167" x2="324.168" y2="34.2859" gradientUnits="userSpaceOnUse">
<stop stop-color="#02CAFD"/>
<stop offset="1" stop-color="#83F8A6"/>
</linearGradient>
</defs>
</svg>
